<svg xmlns="http://www.w3.org/2000/svg" viewBox="0 0 96 96">
<defs>
  <linearGradient id="g" x1="0" y1="0" x2="1" y2="1"><stop offset="0" stop-color="#7fd3ff"/><stop offset="1" stop-color="#2f78bd"/></linearGradient>
</defs>
<path fill="#0b1219" d="M0 0h96v96H0z"/>
<path fill="url(#g)" d="M18 18 35 27 48 20l13 7 17-9-4 23c7 9 8 19 3 29-5 10-15 16-29 16s-24-6-29-16c-5-10-4-20 3-29l-4-23zm16 29c-5 2-9 6-10 11 5-3 10-4 15-3-2-3-3-5-5-8zm28 0c-2 3-3 5-5 8 5-1 10 0 15 3-1-5-5-9-10-11zM48 38c-6 0-11 5-11 12 0 9 5 16 11 20 6-4 11-11 11-20 0-7-5-12-11-12zm-5 10c2-2 4-3 5-3s3 1 5 3c-1 1-3 2-5 2s-4-1-5-2zm5 8c3 0 6 2 8 4-2 5-5 7-8 9-3-2-6-4-8-9 2-2 5-4 8-4z"/>
<circle cx="40" cy="51" r="2" fill="#0b1219"/><circle cx="56" cy="51" r="2" fill="#0b1219"/>
</svg>